<svg fill="#f87719" version="1.1" id="Capa_1" xmlns="http://www.w3.org/2000/svg" viewBox="0 0 526.32 526.32" xml:space="preserve"><path d="M129.539 0v18.36h-48.96V0H50.49v526.32h30.089v-18.36h48.96v18.36h32.641V385.438h201.96V526.32h31.618v-18.36h48.96v18.36h31.111V0h-31.111v18.36h-48.96V0H364.14v140.883H162.18V0h-32.641zm0 467.161h-48.96v-48.96h48.96v48.96zm0-89.762h-48.96v-48.96h48.96v48.96zm0-89.758h-48.96v-48.96h48.96v48.96zm0-89.76h-48.96v-48.96h48.96v48.96zm0-89.762h-48.96v-48.96h48.96v48.96zm266.22-48.96h48.96v48.96h-48.96v-48.96zm0 89.762h48.96v48.96h-48.96v-48.96zm0 89.759h48.96v48.96h-48.96v-48.96zm0 89.759h48.96v48.96h-48.96v-48.96zm0 89.762h48.96v48.96h-48.96v-48.96zm-31.618-227.012v143.942H162.18V191.189h201.961z"/></svg>