<svg aria-hidden="true" style="width:0;height:0;position:absolute;overflow:hidden" xmlns="http://www.w3.org/2000/svg"><defs><symbol id="icon-dots" viewBox="0 0 32 32"><path fill="#b7b7b7" style="fill:var(--color1,#b7b7b7)" d="M2.665 15.068c0-.742.252-1.366.756-1.869.504-.517 1.187-.776 2.048-.776.875 0 1.558.259 2.048.776.504.504.756 1.127.756 1.869s-.252 1.366-.756 1.869c-.491.504-1.173.756-2.048.756-.862 0-1.545-.252-2.048-.756s-.756-1.127-.756-1.869zm11.335 0c0-.742.252-1.366.756-1.869.504-.517 1.187-.776 2.048-.776.875 0 1.558.259 2.048.776.504.504.756 1.127.756 1.869s-.252 1.366-.756 1.869c-.491.504-1.173.756-2.048.756-.862 0-1.545-.252-2.048-.756S14 15.81 14 15.068zm11.335 0c0-.742.252-1.366.756-1.869.504-.517 1.187-.776 2.048-.776.875 0 1.558.259 2.048.776.504.504.756 1.127.756 1.869s-.252 1.366-.756 1.869c-.491.504-1.173.756-2.048.756-.862 0-1.544-.252-2.048-.756s-.756-1.127-.756-1.869z"/></symbol><symbol id="icon-left" viewBox="0 0 32 32"><path fill="none" stroke-linejoin="round" stroke-linecap="round" stroke-width="2.286" d="m20.5 7-9 9 9 9"/></symbol><symbol id="icon-moon" viewBox="0 0 32 32"><path fill="none" stroke="#fff" style="stroke:var(--color3,#fff)" stroke-linejoin="round" stroke-linecap="round" stroke-width="2.133" d="M2.189 16.585c.515 7.14 6.772 12.948 14.261 13.267 5.283.222 10.008-2.163 12.843-5.92 1.174-1.539.544-2.565-1.417-2.218-.959.166-1.947.236-2.978.194-7.002-.277-12.729-5.947-12.757-12.643a11.998 11.998 0 0 1 1.074-5.06c.773-1.719-.157-2.537-1.947-1.802-5.67 2.315-9.55 7.847-9.078 14.182z"/></symbol><symbol id="icon-right" viewBox="0 0 32 32"><path fill="none" stroke-linejoin="round" stroke-linecap="round" stroke-width="2.286" d="m11.5 7 9 9-9 9"/></symbol><symbol id="icon-star-half" viewBox="0 0 32 32"><path fill="none" stroke="#000" style="stroke:var(--color4,#000)" stroke-linejoin="round" stroke-width="1.333" d="M30 13H19.25L16 3l-3.25 10H2l8.75 6-3.375 10L16 22.75 24.625 29 21.25 19 30 13z"/><path d="M16 3v19.75L7.375 29l3.375-10L2 13h10.75L16 3z"/></symbol><symbol id="icon-star-outline" viewBox="0 0 32 32"><path stroke-linejoin="round" stroke-width="1.778" d="M30 13H19.25L16 3l-3.25 10H2l8.75 6-3.375 10L16 22.75 24.625 29 21.25 19 30 13z"/></symbol><symbol id="icon-star" viewBox="0 0 32 32"><path d="M24.625 30a1.005 1.005 0 0 1-.587-.187L16 23.986l-8.038 5.827a1.004 1.004 0 0 1-1.18-.004 1.003 1.003 0 0 1-.354-1.126l3.135-9.286-8.125-5.572A.999.999 0 0 1 2.001 12h10.024l3.025-9.309A.996.996 0 0 1 16.001 2a1.002 1.002 0 0 1 .951.691l3.025 9.313h10.024a1 1 0 0 1 .566 1.825l-8.128 5.569 3.133 9.283a1.001 1.001 0 0 1-.945 1.32z"/></symbol><symbol id="icon-sun" viewBox="0 0 32 32"><path fill="none" stroke="#fff" style="stroke:var(--color3,#fff)" stroke-linejoin="round" stroke-linecap="round" stroke-width="2" d="M16 26c5.523 0 10-4.477 10-10S21.523 6 16 6 6 10.477 6 16s4.477 10 10 10z"/><path fill="none" stroke="#fff" style="stroke:var(--color3,#fff)" stroke-linejoin="round" stroke-linecap="round" stroke-width="3" d="m25.814 6.186.182-.182M6.004 25.996l.182-.182M16 2.112V2m0 28v-.112M2.112 16H2m28 0h-.112M6.186 6.186l-.182-.182m19.992 19.992-.182-.182"/></symbol><symbol id="icon-heart" viewBox="0 0 34 32"><path fill="#f87719" style="fill:var(--color1,#f87719)" d="m17.231 31.705-2.412-2.412C5.859 21.367.001 16.025.001 9.478.001 4.136 4.136.001 9.478.001c2.929 0 5.858 1.378 7.754 3.618 1.895-2.24 4.825-3.618 7.754-3.618 5.342 0 9.477 4.135 9.477 9.477 0 6.548-5.858 11.889-14.818 19.815l-2.412 2.412z"/></symbol><symbol id="icon-github" viewBox="0 0 32 32"><path d="M16 0C7.165 0 0 7.164 0 16c0 7.069 4.584 13.067 10.943 15.183.799.148 1.057-.348 1.057-.769v-2.979c-4.451.968-5.377-1.888-5.377-1.888-.728-1.849-1.777-2.341-1.777-2.341-1.452-.993.111-.972.111-.972 1.607.112 2.452 1.649 2.452 1.649 1.427 2.445 3.743 1.739 4.656 1.329.143-1.033.557-1.74 1.016-2.139-3.553-.407-7.289-1.779-7.289-7.908 0-1.748.625-3.175 1.648-4.295-.165-.404-.713-2.032.156-4.235 0 0 1.344-.429 4.401 1.64a15.345 15.345 0 0 1 4.004-.539c1.36.007 2.729.184 4.008.539 3.055-2.069 4.396-1.64 4.396-1.64.871 2.204.323 3.832.157 4.235 1.027 1.12 1.647 2.548 1.647 4.295 0 6.145-3.743 7.499-7.305 7.895.573.496 1.097 1.469 1.097 2.963v4.391c0 .425.256.925 1.068.768 6.353-2.119 10.932-8.115 10.932-15.181 0-8.836-7.164-16-16-16z"/></symbol><symbol id="icon-inkedin" viewBox="0 0 32 32"><path d="M25.333 0H6.666A6.668 6.668 0 0 0-.001 6.667v18.667a6.668 6.668 0 0 0 6.667 6.667h18.667A6.666 6.666 0 0 0 32 25.334V6.667A6.667 6.667 0 0 0 25.333 0zM10.667 25.333h-4V10.666h4v14.667zm-2-16.357c-1.288 0-2.333-1.053-2.333-2.352s1.045-2.352 2.333-2.352S11 5.325 11 6.624 9.956 8.976 8.667 8.976zm18 16.357h-4v-7.472c0-4.491-5.333-4.151-5.333 0v7.472h-4V10.666h4v2.353c1.861-3.448 9.333-3.703 9.333 3.301v9.012z"/></symbol><symbol id="icon-x-button" viewBox="0 0 32 32"><path d="M16.003 2.673c7.357 0 13.331 5.973 13.331 13.329 0 7.357-5.973 13.331-13.331 13.331-7.356 0-13.329-5.973-13.329-13.331 0-7.356 5.973-13.329 13.329-13.329zm0 2c-6.253 0-11.329 5.076-11.329 11.329S9.75 27.333 16.003 27.333s11.331-5.077 11.331-11.331S22.257 4.673 16.003 4.673zm0 9.9 3.623-3.624a.999.999 0 1 1 1.416 1.416l-3.623 3.623 3.636 3.637a1 1 0 0 1-1.414 1.416l-3.639-3.637-3.637 3.637a1.001 1.001 0 0 1-1.415-1.416l3.637-3.637-3.629-3.629a.998.998 0 0 1 .708-1.707c.256 0 .513.097.708.292z"/></symbol><symbol id="icon-scroll-up" viewBox="0 0 32 32"><path d="M16 9.333 22.667 16h-4v5.333h-5.333V16h-4l6.667-6.667zM28 22c0 .507-.28.947-.707 1.173l-10.533 5.92c-.213.16-.48.24-.76.24s-.547-.08-.76-.24l-10.533-5.92A1.322 1.322 0 0 1 4 22V10c0-.507.28-.947.707-1.173l10.533-5.92c.213-.16.48-.24.76-.24s.547.08.76.24l10.533 5.92c.427.227.707.667.707 1.173v12zM16 5.533l-9.333 5.253v10.427L16 26.466l9.333-5.253V10.786L16 5.533z"/></symbol><symbol id="icon-cross-closed" viewBox="0 0 32 32"><path fill="none" stroke-linejoin="round" stroke-linecap="round" stroke-width="2.667" d="M30 30 2 2m28 0L2 30"/></symbol><symbol id="icon-cross" viewBox="0 0 32 32"><path d="M31.708 25.708 22 16l9.708-9.708a1 1 0 0 0 0-1.414L27.122.292a1 1 0 0 0-1.414-.001L16 9.999 6.292.291a.998.998 0 0 0-1.414.001L.292 4.878a1 1 0 0 0 0 1.414L10 16 .292 25.708a.999.999 0 0 0 0 1.414l4.586 4.586a1 1 0 0 0 1.414 0L16 22l9.708 9.708a1 1 0 0 0 1.414 0l4.586-4.586a.999.999 0 0 0 0-1.414z"/></symbol><symbol id="icon-search" viewBox="0 0 33 32"><path d="M13.352 0h.004v.002a13.31 13.31 0 0 1 9.439 3.912 13.31 13.31 0 0 1 3.907 9.43h.002v.02h-.002a13.328 13.328 0 0 1-.927 4.888v.002a13.292 13.292 0 0 1-1.482 2.753l7.818 7.028a2.302 2.302 0 0 1 .179 3.139l-.003.004-.047.054-.009.009-.039.043-.004.006a2.294 2.294 0 0 1-1.544.707 2.297 2.297 0 0 1-1.595-.528l-.004-.003-.055-.047-.008-.006-7.945-7.141c-.235.166-.475.323-.718.471a13.287 13.287 0 0 1-6.967 1.96v.002h-.004v-.002a13.31 13.31 0 0 1-9.439-3.912 13.305 13.305 0 0 1-3.907-9.429H0v-.013h.002A13.31 13.31 0 0 1 3.914 3.91a13.31 13.31 0 0 1 9.43-3.907V.001h.009zm.005 2.994v.002h-.013v-.002c-2.854.002-5.442 1.162-7.315 3.034s-3.034 4.462-3.035 7.32h.002v.013h-.002c.002 2.854 1.161 5.44 3.034 7.314s4.462 3.034 7.32 3.035v-.002h.013v.002c2.854-.002 5.441-1.161 7.314-3.034s3.034-4.461 3.034-7.319h-.002v-.013h.002c-.002-2.854-1.162-5.442-3.034-7.315s-4.461-3.034-7.319-3.035z"/></symbol></defs></svg>