<svg aria-hidden="true" style="width:0;height:0;position:absolute;overflow:hidden" xmlns="http://www.w3.org/2000/svg"><defs><symbol id="icon-dots" viewBox="0 0 32 32"><path fill="#b7b7b7" style="fill:var(--color1,#b7b7b7)" d="M2.665 15.068c0-.742.252-1.366.756-1.869.504-.517 1.187-.776 2.048-.776.875 0 1.558.259 2.048.776.504.504.756 1.127.756 1.869s-.252 1.366-.756 1.869c-.491.504-1.173.756-2.048.756-.862 0-1.545-.252-2.048-.756s-.756-1.127-.756-1.869zm11.335 0c0-.742.252-1.366.756-1.869.504-.517 1.187-.776 2.048-.776.875 0 1.558.259 2.048.776.504.504.756 1.127.756 1.869s-.252 1.366-.756 1.869c-.491.504-1.173.756-2.048.756-.862 0-1.545-.252-2.048-.756S14 15.81 14 15.068zm11.335 0c0-.742.252-1.366.756-1.869.504-.517 1.187-.776 2.048-.776.875 0 1.558.259 2.048.776.504.504.756 1.127.756 1.869s-.252 1.366-.756 1.869c-.491.504-1.173.756-2.048.756-.862 0-1.544-.252-2.048-.756s-.756-1.127-.756-1.869z"/></symbol><symbol id="icon-left" viewBox="0 0 32 32"><path fill="none" stroke="#595959" style="stroke:var(--color2,#595959)" stroke-linejoin="round" stroke-linecap="round" stroke-width="2.286" d="m20.5 7-9 9 9 9"/></symbol><symbol id="icon-moon" viewBox="0 0 32 32"><path fill="none" stroke="#fff" style="stroke:var(--color3,#fff)" stroke-linejoin="round" stroke-linecap="round" stroke-width="2.133" d="M2.189 16.585c.515 7.14 6.772 12.948 14.261 13.267 5.283.222 10.008-2.163 12.843-5.92 1.174-1.539.544-2.565-1.417-2.218-.959.166-1.947.236-2.978.194-7.002-.277-12.729-5.947-12.757-12.643a11.998 11.998 0 0 1 1.074-5.06c.773-1.719-.157-2.537-1.947-1.802-5.67 2.315-9.55 7.847-9.078 14.182z"/></symbol><symbol id="icon-right" viewBox="0 0 32 32"><path fill="none" stroke="#595959" style="stroke:var(--color2,#595959)" stroke-linejoin="round" stroke-linecap="round" stroke-width="2.286" d="m11.5 7 9 9-9 9"/></symbol><symbol id="icon-search" viewBox="0 0 32 32"><path stroke-linejoin="round" stroke-linecap="round" stroke-width="2.08" d="M14.667 25.333c5.891 0 10.667-4.776 10.667-10.667S20.558 3.999 14.667 3.999 4 8.775 4 14.666s4.776 10.667 10.667 10.667zM28 28l-5.8-5.8"/></symbol><symbol id="icon-star-half" viewBox="0 0 32 32"><path fill="none" stroke="#000" style="stroke:var(--color4,#000)" stroke-linejoin="round" stroke-width="1.333" d="M30 13H19.25L16 3l-3.25 10H2l8.75 6-3.375 10L16 22.75 24.625 29 21.25 19 30 13z"/><path d="M16 3v19.75L7.375 29l3.375-10L2 13h10.75L16 3z"/></symbol><symbol id="icon-star-outline" viewBox="0 0 32 32"><path stroke-linejoin="round" stroke-width="1.778" d="M30 13H19.25L16 3l-3.25 10H2l8.75 6-3.375 10L16 22.75 24.625 29 21.25 19 30 13z"/></symbol><symbol id="icon-star" viewBox="0 0 32 32"><path d="M24.625 30a1.005 1.005 0 0 1-.587-.187L16 23.986l-8.038 5.827a1.004 1.004 0 0 1-1.18-.004 1.003 1.003 0 0 1-.354-1.126l3.135-9.286-8.125-5.572A.999.999 0 0 1 2.001 12h10.024l3.025-9.309A.996.996 0 0 1 16.001 2a1.002 1.002 0 0 1 .951.691l3.025 9.313h10.024a1 1 0 0 1 .566 1.825l-8.128 5.569 3.133 9.283a1.001 1.001 0 0 1-.945 1.32z"/></symbol><symbol id="icon-sun" viewBox="0 0 32 32"><path fill="none" stroke="#fff" style="stroke:var(--color3,#fff)" stroke-linejoin="round" stroke-linecap="round" stroke-width="2" d="M16 26c5.523 0 10-4.477 10-10S21.523 6 16 6 6 10.477 6 16s4.477 10 10 10z"/><path fill="none" stroke="#fff" style="stroke:var(--color3,#fff)" stroke-linejoin="round" stroke-linecap="round" stroke-width="3" d="m25.814 6.186.182-.182M6.004 25.996l.182-.182M16 2.112V2m0 28v-.112M2.112 16H2m28 0h-.112M6.186 6.186l-.182-.182m19.992 19.992-.182-.182"/></symbol><symbol id="icon-heart" viewBox="0 0 34 32"><path fill="#f87719" style="fill:var(--color1,#f87719)" d="m17.231 31.705-2.412-2.412C5.859 21.367.001 16.025.001 9.478.001 4.136 4.136.001 9.478.001c2.929 0 5.858 1.378 7.754 3.618 1.895-2.24 4.825-3.618 7.754-3.618 5.342 0 9.477 4.135 9.477 9.477 0 6.548-5.858 11.889-14.818 19.815l-2.412 2.412z"/></symbol></defs></svg>