<?xml version="1.0" encoding="iso-8859-1"?>
<!-- Uploaded to: SVG Repo, www.svgrepo.com, Generator: SVG Repo Mixer Tools -->
<!DOCTYPE svg PUBLIC "-//W3C//DTD SVG 1.1//EN" "http://www.w3.org/Graphics/SVG/1.1/DTD/svg11.dtd">
<svg fill="#f87719" version="1.1" id="Capa_1" xmlns="http://www.w3.org/2000/svg" xmlns:xlink="http://www.w3.org/1999/xlink" 
	  viewBox="0 0 557.471 557.471"
	 xml:space="preserve">
<g>
	<g>
		<path d="M537.911,30.156c0,0-2.552,0-5.704,0c-3.151,0-5.703,2.674-5.703,5.979v5.979c0,10.802-8.758,19.56-19.56,19.56h-52.161
			c-10.802,0-19.56-8.758-19.56-19.56c0,0,0-2.674,0-5.979c0-3.299-2.552-5.979-5.704-5.979h-5.703H133.667c0,0-2.552,0-5.704,0
			s-5.704,2.674-5.704,5.979v5.979c0,10.802-8.758,19.56-19.56,19.56H50.539c-10.802,0-19.559-8.758-19.559-19.56
			c0,0,0-2.674,0-5.979c0-3.299-2.552-5.979-5.704-5.979H19.56C8.757,30.156,0,38.914,0,49.716v457.501
			c0,10.802,8.757,19.56,19.56,19.56c0,0,2.552,0,5.704,0s5.704-2.675,5.704-5.979v-5.979c0-10.802,8.758-19.56,19.56-19.56h52.161
			c4.443,0,8.531,1.487,11.812,3.99c2.687,2.051,4.217,7.143,4.217,10.521v11.426c0,3.379,2.742,6.12,6.12,6.12h307.799
			c3.378,0,6.12-2.741,6.12-6.12v-11.426c0-3.378,1.53-8.47,4.217-10.521c3.28-2.503,7.368-3.99,11.812-3.99h52.161
			c10.802,0,19.56,8.758,19.56,19.56c0,0,0,2.675,0,5.979s2.552,5.979,5.703,5.979h5.704c10.802,0,19.56-8.758,19.56-19.56V49.716
			C557.477,38.914,548.719,30.156,537.911,30.156z M122.253,433.317c0,10.802-8.758,19.56-19.56,19.56H50.533
			c-10.802,0-19.56-8.758-19.56-19.56v-52.161c0-10.802,8.758-19.56,19.56-19.56h52.161c10.802,0,19.56,8.758,19.56,19.56V433.317z
			 M122.253,302.912c0,10.802-8.758,19.56-19.56,19.56H50.533c-10.802,0-19.56-8.758-19.56-19.56v-52.16
			c0-10.802,8.758-19.56,19.56-19.56h52.161c10.802,0,19.56,8.757,19.56,19.56V302.912z M122.253,172.514
			c0,10.802-8.758,19.56-19.56,19.56H50.533c-10.802,0-19.56-8.758-19.56-19.56v-52.161c0-10.802,8.758-19.56,19.56-19.56h52.161
			c10.802,0,19.56,8.758,19.56,19.56V172.514z M403.706,458.171c0,3.378-2.742,6.12-6.12,6.12H159.885
			c-3.378,0-6.12-2.742-6.12-6.12V321.529c0-3.378,2.742-6.12,6.12-6.12h237.701c3.378,0,6.12,2.742,6.12,6.12V458.171z
			 M403.706,231.051c0,3.378-2.742,6.12-6.12,6.12H159.885c-3.378,0-6.12-2.742-6.12-6.12V99.845c0-3.378,2.742-6.12,6.12-6.12
			h237.701c3.378,0,6.12,2.742,6.12,6.12V231.051z M526.504,433.317c0,10.802-8.758,19.56-19.56,19.56h-52.161
			c-10.802,0-19.56-8.758-19.56-19.56v-52.161c0-10.802,8.758-19.56,19.56-19.56h52.161c10.802,0,19.56,8.758,19.56,19.56V433.317z
			 M526.504,302.912c0,10.802-8.758,19.56-19.56,19.56h-52.161c-10.802,0-19.56-8.758-19.56-19.56v-52.16
			c0-10.802,8.758-19.56,19.56-19.56h52.161c10.802,0,19.56,8.757,19.56,19.56V302.912z M526.504,172.514
			c0,10.802-8.758,19.56-19.56,19.56h-52.161c-10.802,0-19.56-8.758-19.56-19.56v-52.161c0-10.802,8.758-19.56,19.56-19.56h52.161
			c10.802,0,19.56,8.758,19.56,19.56V172.514z"/>
	</g>
</g>
</svg>