<svg aria-hidden="true" style="position: absolute; width: 0; height: 0; overflow: hidden;" version="1.1" xmlns="http://www.w3.org/2000/svg" xmlns:xlink="http://www.w3.org/1999/xlink">
<defs>
<symbol id="icon-dots" viewBox="0 0 32 32">
<path fill="#b7b7b7" style="fill: var(--color1, #b7b7b7)" d="M2.665 15.068c0-0.742 0.252-1.366 0.756-1.869 0.504-0.517 1.187-0.776 2.048-0.776 0.875 0 1.558 0.259 2.048 0.776 0.504 0.504 0.756 1.127 0.756 1.869s-0.252 1.366-0.756 1.869c-0.491 0.504-1.173 0.756-2.048 0.756-0.862 0-1.545-0.252-2.048-0.756s-0.756-1.127-0.756-1.869zM14 15.068c0-0.742 0.252-1.366 0.756-1.869 0.504-0.517 1.187-0.776 2.048-0.776 0.875 0 1.558 0.259 2.048 0.776 0.504 0.504 0.756 1.127 0.756 1.869s-0.252 1.366-0.756 1.869c-0.491 0.504-1.173 0.756-2.048 0.756-0.862 0-1.545-0.252-2.048-0.756s-0.756-1.127-0.756-1.869zM25.335 15.068c0-0.742 0.252-1.366 0.756-1.869 0.504-0.517 1.187-0.776 2.048-0.776 0.875 0 1.558 0.259 2.048 0.776 0.504 0.504 0.756 1.127 0.756 1.869s-0.252 1.366-0.756 1.869c-0.491 0.504-1.173 0.756-2.048 0.756-0.862 0-1.544-0.252-2.048-0.756s-0.756-1.127-0.756-1.869z"></path>
</symbol>
<symbol id="icon-left" viewBox="0 0 32 32">
<path fill="none" stroke="#595959" style="stroke: var(--color2, #595959)" stroke-linejoin="round" stroke-linecap="round" stroke-miterlimit="4" stroke-width="2.2857" d="M20.5 7l-9 9 9 9"></path>
</symbol>
<symbol id="icon-moon" viewBox="0 0 32 32">
<path fill="none" stroke="#fff" style="stroke: var(--color3, #fff)" stroke-linejoin="round" stroke-linecap="round" stroke-miterlimit="4" stroke-width="2.1333" d="M2.189 16.585c0.515 7.14 6.772 12.948 14.261 13.267 5.283 0.222 10.008-2.163 12.843-5.92 1.174-1.539 0.544-2.565-1.417-2.218-0.959 0.166-1.947 0.236-2.978 0.194-7.002-0.277-12.729-5.947-12.757-12.643-0.014-1.802 0.372-3.507 1.074-5.060 0.773-1.719-0.157-2.537-1.947-1.802-5.67 2.315-9.55 7.847-9.078 14.182z"></path>
</symbol>
<symbol id="icon-right" viewBox="0 0 32 32">
<path fill="none" stroke="#595959" style="stroke: var(--color2, #595959)" stroke-linejoin="round" stroke-linecap="round" stroke-miterlimit="4" stroke-width="2.2857" d="M11.5 7l9 9-9 9"></path>
</symbol>
<symbol id="icon-search" viewBox="0 0 32 32">
<path stroke-linejoin="round" stroke-linecap="round" stroke-miterlimit="4" stroke-width="2.0800" d="M14.667 25.333c5.891 0 10.667-4.776 10.667-10.667s-4.776-10.667-10.667-10.667c-5.891 0-10.667 4.776-10.667 10.667s4.776 10.667 10.667 10.667z"></path>
<path stroke-linejoin="round" stroke-linecap="round" stroke-miterlimit="4" stroke-width="2.0800" d="M28 28l-5.8-5.8"></path>
</symbol>
<symbol id="icon-star-half" viewBox="0 0 32 32">
<path fill="none" stroke="#000" style="stroke: var(--color4, #000)" stroke-linejoin="round" stroke-linecap="butt" stroke-miterlimit="4" stroke-width="1.3333" d="M30 13h-10.75l-3.25-10-3.25 10h-10.75l8.75 6-3.375 10 8.625-6.25 8.625 6.25-3.375-10 8.75-6z"></path>
<path d="M16 3v19.75l-8.625 6.25 3.375-10-8.75-6h10.75l3.25-10z"></path>
</symbol>
<symbol id="icon-star-outline" viewBox="0 0 32 32">
<path stroke-linejoin="round" stroke-linecap="butt" stroke-miterlimit="4" stroke-width="1.7778" d="M30 13h-10.75l-3.25-10-3.25 10h-10.75l8.75 6-3.375 10 8.625-6.25 8.625 6.25-3.375-10 8.75-6z"></path>
</symbol>
<symbol id="icon-star" viewBox="0 0 32 32">
<path d="M24.625 30c-0.21 0.001-0.416-0.065-0.587-0.187l-8.038-5.827-8.038 5.827c-0.172 0.125-0.379 0.191-0.591 0.191s-0.419-0.069-0.589-0.195c-0.171-0.126-0.297-0.303-0.361-0.505s-0.061-0.42 0.007-0.621l3.135-9.286-8.125-5.572c-0.176-0.121-0.309-0.294-0.379-0.496s-0.074-0.42-0.011-0.624c0.063-0.204 0.189-0.382 0.361-0.509s0.379-0.196 0.592-0.196h10.024l3.025-9.309c0.065-0.201 0.192-0.376 0.363-0.5s0.377-0.191 0.588-0.191c0.211 0 0.417 0.067 0.588 0.191s0.298 0.299 0.363 0.5l3.025 9.313h10.024c0.214-0 0.422 0.068 0.594 0.195s0.299 0.305 0.362 0.509c0.063 0.204 0.059 0.423-0.011 0.625s-0.203 0.376-0.379 0.496l-8.128 5.569 3.133 9.283c0.051 0.15 0.065 0.311 0.042 0.467s-0.084 0.306-0.176 0.435c-0.092 0.129-0.214 0.234-0.355 0.307s-0.297 0.111-0.456 0.111z"></path>
</symbol>
<symbol id="icon-sun" viewBox="0 0 32 32">
<path fill="none" stroke="#fff" style="stroke: var(--color3, #fff)" stroke-linejoin="round" stroke-linecap="round" stroke-miterlimit="4" stroke-width="2" d="M16 26c5.523 0 10-4.477 10-10s-4.477-10-10-10c-5.523 0-10 4.477-10 10s4.477 10 10 10z"></path>
<path fill="none" stroke="#fff" style="stroke: var(--color3, #fff)" stroke-linejoin="round" stroke-linecap="round" stroke-miterlimit="4" stroke-width="3" d="M25.814 6.186l0.182-0.182M6.004 25.996l0.182-0.182M16 2.112v-0.112M16 30v-0.112M2.112 16h-0.112M30 16h-0.112M6.186 6.186l-0.182-0.182M25.996 25.996l-0.182-0.182"></path>
</symbol>
<symbol id="icon-heart" viewBox="0 0 34 32">
<path fill="#f87719" style="fill: var(--color1, #f87719)" d="M17.231 31.705l-2.412-2.412c-8.96-7.926-14.818-13.268-14.818-19.815 0-5.342 4.135-9.477 9.477-9.477 2.929 0 5.858 1.378 7.754 3.618 1.895-2.24 4.825-3.618 7.754-3.618 5.342 0 9.477 4.135 9.477 9.477 0 6.548-5.858 11.889-14.818 19.815l-2.412 2.412z"></path>
</symbol>
</defs>
</svg>
