<svg aria-hidden="true" style="position: absolute; width: 0; height: 0; overflow: hidden;" version="1.1" xmlns="http://www.w3.org/2000/svg" xmlns:xlink="http://www.w3.org/1999/xlink">
<defs>
<symbol id="icon-dots" viewBox="0 0 32 32">
<path fill="#b7b7b7" style="fill: var(--color1, #b7b7b7)" d="M2.665 15.068c0-0.742 0.252-1.366 0.756-1.869 0.504-0.517 1.187-0.776 2.048-0.776 0.875 0 1.558 0.259 2.048 0.776 0.504 0.504 0.756 1.127 0.756 1.869s-0.252 1.366-0.756 1.869c-0.491 0.504-1.173 0.756-2.048 0.756-0.862 0-1.545-0.252-2.048-0.756s-0.756-1.127-0.756-1.869zM14 15.068c0-0.742 0.252-1.366 0.756-1.869 0.504-0.517 1.187-0.776 2.048-0.776 0.875 0 1.558 0.259 2.048 0.776 0.504 0.504 0.756 1.127 0.756 1.869s-0.252 1.366-0.756 1.869c-0.491 0.504-1.173 0.756-2.048 0.756-0.862 0-1.545-0.252-2.048-0.756s-0.756-1.127-0.756-1.869zM25.335 15.068c0-0.742 0.252-1.366 0.756-1.869 0.504-0.517 1.187-0.776 2.048-0.776 0.875 0 1.558 0.259 2.048 0.776 0.504 0.504 0.756 1.127 0.756 1.869s-0.252 1.366-0.756 1.869c-0.491 0.504-1.173 0.756-2.048 0.756-0.862 0-1.544-0.252-2.048-0.756s-0.756-1.127-0.756-1.869z"></path>
</symbol>
<symbol id="icon-left" viewBox="0 0 32 32">
<path fill="none"  stroke-linejoin="round" stroke-linecap="round" stroke-miterlimit="4" stroke-width="2.2857" d="M20.5 7l-9 9 9 9"></path>
</symbol>
<symbol id="icon-moon" viewBox="0 0 32 32">
<path fill="none" stroke="#fff" style="stroke: var(--color3, #fff)" stroke-linejoin="round" stroke-linecap="round" stroke-miterlimit="4" stroke-width="2.1333" d="M2.189 16.585c0.515 7.14 6.772 12.948 14.261 13.267 5.283 0.222 10.008-2.163 12.843-5.92 1.174-1.539 0.544-2.565-1.417-2.218-0.959 0.166-1.947 0.236-2.978 0.194-7.002-0.277-12.729-5.947-12.757-12.643-0.014-1.802 0.372-3.507 1.074-5.060 0.773-1.719-0.157-2.537-1.947-1.802-5.67 2.315-9.55 7.847-9.078 14.182z"></path>
</symbol>
<symbol id="icon-right" viewBox="0 0 32 32">
<path fill="none"   stroke-linejoin="round" stroke-linecap="round" stroke-miterlimit="4" stroke-width="2.2857" d="M11.5 7l9 9-9 9"></path>
</symbol>
<symbol id="icon-star-half" viewBox="0 0 32 32">
<path fill="none" stroke="#000" style="stroke: var(--color4, #000)" stroke-linejoin="round" stroke-linecap="butt" stroke-miterlimit="4" stroke-width="1.3333" d="M30 13h-10.75l-3.25-10-3.25 10h-10.75l8.75 6-3.375 10 8.625-6.25 8.625 6.25-3.375-10 8.75-6z"></path>
<path d="M16 3v19.75l-8.625 6.25 3.375-10-8.75-6h10.75l3.25-10z"></path>
</symbol>
<symbol id="icon-star-outline" viewBox="0 0 32 32">
<path stroke-linejoin="round" stroke-linecap="butt" stroke-miterlimit="4" stroke-width="1.7778" d="M30 13h-10.75l-3.25-10-3.25 10h-10.75l8.75 6-3.375 10 8.625-6.25 8.625 6.25-3.375-10 8.75-6z"></path>
</symbol>
<symbol id="icon-star" viewBox="0 0 32 32">
<path d="M24.625 30c-0.21 0.001-0.416-0.065-0.587-0.187l-8.038-5.827-8.038 5.827c-0.172 0.125-0.379 0.191-0.591 0.191s-0.419-0.069-0.589-0.195c-0.171-0.126-0.297-0.303-0.361-0.505s-0.061-0.42 0.007-0.621l3.135-9.286-8.125-5.572c-0.176-0.121-0.309-0.294-0.379-0.496s-0.074-0.42-0.011-0.624c0.063-0.204 0.189-0.382 0.361-0.509s0.379-0.196 0.592-0.196h10.024l3.025-9.309c0.065-0.201 0.192-0.376 0.363-0.5s0.377-0.191 0.588-0.191c0.211 0 0.417 0.067 0.588 0.191s0.298 0.299 0.363 0.5l3.025 9.313h10.024c0.214-0 0.422 0.068 0.594 0.195s0.299 0.305 0.362 0.509c0.063 0.204 0.059 0.423-0.011 0.625s-0.203 0.376-0.379 0.496l-8.128 5.569 3.133 9.283c0.051 0.15 0.065 0.311 0.042 0.467s-0.084 0.306-0.176 0.435c-0.092 0.129-0.214 0.234-0.355 0.307s-0.297 0.111-0.456 0.111z"></path>
</symbol>
<symbol id="icon-sun" viewBox="0 0 32 32">
<path fill="none" stroke="#fff" style="stroke: var(--color3, #fff)" stroke-linejoin="round" stroke-linecap="round" stroke-miterlimit="4" stroke-width="2" d="M16 26c5.523 0 10-4.477 10-10s-4.477-10-10-10c-5.523 0-10 4.477-10 10s4.477 10 10 10z"></path>
<path fill="none" stroke="#fff" style="stroke: var(--color3, #fff)" stroke-linejoin="round" stroke-linecap="round" stroke-miterlimit="4" stroke-width="3" d="M25.814 6.186l0.182-0.182M6.004 25.996l0.182-0.182M16 2.112v-0.112M16 30v-0.112M2.112 16h-0.112M30 16h-0.112M6.186 6.186l-0.182-0.182M25.996 25.996l-0.182-0.182"></path>
</symbol>
<symbol id="icon-heart" viewBox="0 0 34 32">
<path fill="#f87719" style="fill: var(--color1, #f87719)" d="M17.231 31.705l-2.412-2.412c-8.96-7.926-14.818-13.268-14.818-19.815 0-5.342 4.135-9.477 9.477-9.477 2.929 0 5.858 1.378 7.754 3.618 1.895-2.24 4.825-3.618 7.754-3.618 5.342 0 9.477 4.135 9.477 9.477 0 6.548-5.858 11.889-14.818 19.815l-2.412 2.412z"></path>
</symbol>
<symbol id="icon-github" viewBox="0 0 32 32">
<path d="M16 0c-8.835 0-16 7.164-16 16 0 7.069 4.584 13.067 10.943 15.183 0.799 0.148 1.057-0.348 1.057-0.769v-2.979c-4.451 0.968-5.377-1.888-5.377-1.888-0.728-1.849-1.777-2.341-1.777-2.341-1.452-0.993 0.111-0.972 0.111-0.972 1.607 0.112 2.452 1.649 2.452 1.649 1.427 2.445 3.743 1.739 4.656 1.329 0.143-1.033 0.557-1.74 1.016-2.139-3.553-0.407-7.289-1.779-7.289-7.908 0-1.748 0.625-3.175 1.648-4.295-0.165-0.404-0.713-2.032 0.156-4.235 0 0 1.344-0.429 4.401 1.64 1.276-0.355 2.644-0.532 4.004-0.539 1.36 0.007 2.729 0.184 4.008 0.539 3.055-2.069 4.396-1.64 4.396-1.64 0.871 2.204 0.323 3.832 0.157 4.235 1.027 1.12 1.647 2.548 1.647 4.295 0 6.145-3.743 7.499-7.305 7.895 0.573 0.496 1.097 1.469 1.097 2.963v4.391c0 0.425 0.256 0.925 1.068 0.768 6.353-2.119 10.932-8.115 10.932-15.181 0-8.836-7.164-16-16-16z"></path>
</symbol>
<symbol id="icon-inkedin" viewBox="0 0 32 32">
<path d="M25.333 0h-18.667c-3.681 0-6.667 2.985-6.667 6.667v18.667c0 3.681 2.985 6.667 6.667 6.667h18.667c3.683 0 6.667-2.985 6.667-6.667v-18.667c0-3.681-2.984-6.667-6.667-6.667zM10.667 25.333h-4v-14.667h4v14.667zM8.667 8.976c-1.288 0-2.333-1.053-2.333-2.352s1.045-2.352 2.333-2.352 2.333 1.053 2.333 2.352-1.044 2.352-2.333 2.352zM26.667 25.333h-4v-7.472c0-4.491-5.333-4.151-5.333 0v7.472h-4v-14.667h4v2.353c1.861-3.448 9.333-3.703 9.333 3.301v9.012z"></path>
</symbol>
<symbol id="icon-x-button" viewBox="0 0 32 32">
<path d="M16.003 2.673c7.357 0 13.331 5.973 13.331 13.329 0 7.357-5.973 13.331-13.331 13.331-7.356 0-13.329-5.973-13.329-13.331 0-7.356 5.973-13.329 13.329-13.329zM16.003 4.673c-6.253 0-11.329 5.076-11.329 11.329s5.076 11.331 11.329 11.331 11.331-5.077 11.331-11.331-5.077-11.329-11.331-11.329zM16.003 14.573l3.623-3.624c0.195-0.195 0.452-0.292 0.708-0.292 0.539 0 1 0.433 1 1 0 0.257-0.097 0.512-0.292 0.708l-3.623 3.623 3.636 3.637c0.196 0.196 0.293 0.452 0.293 0.708 0 0.569-0.465 1-1 1-0.256 0-0.512-0.097-0.707-0.292l-3.639-3.637-3.637 3.637c-0.195 0.195-0.451 0.292-0.707 0.292-0.535 0-1.001-0.431-1.001-1 0-0.256 0.097-0.512 0.293-0.708l3.637-3.637-3.629-3.629c-0.195-0.196-0.292-0.451-0.292-0.708 0-0.567 0.461-0.999 1-0.999 0.256 0 0.513 0.097 0.708 0.292z"></path>
</symbol>
<symbol id="icon-scroll-up" viewBox="0 0 32 32">
<path d="M16 9.333l6.667 6.667h-4v5.333h-5.333v-5.333h-4l6.667-6.667zM28 22c0 0.507-0.28 0.947-0.707 1.173l-10.533 5.92c-0.213 0.16-0.48 0.24-0.76 0.24s-0.547-0.080-0.76-0.24l-10.533-5.92c-0.427-0.227-0.707-0.667-0.707-1.173v-12c0-0.507 0.28-0.947 0.707-1.173l10.533-5.92c0.213-0.16 0.48-0.24 0.76-0.24s0.547 0.080 0.76 0.24l10.533 5.92c0.427 0.227 0.707 0.667 0.707 1.173v12zM16 5.533l-9.333 5.253v10.427l9.333 5.253 9.333-5.253v-10.427l-9.333-5.253z"></path>
</symbol>
<symbol id="icon-cross-closed" viewBox="0 0 32 32">
<path fill="none" stroke-linejoin="round" stroke-linecap="round" stroke-miterlimit="4" stroke-width="2.6667" d="M30 30l-28-28M30 2l-28 28"></path>
</symbol>
<symbol id="icon-cross" viewBox="0 0 32 32">
<path d="M31.708 25.708c-0-0-0-0-0-0l-9.708-9.708 9.708-9.708c0-0 0-0 0-0 0.105-0.105 0.18-0.227 0.229-0.357 0.133-0.356 0.057-0.771-0.229-1.057l-4.586-4.586c-0.286-0.286-0.702-0.361-1.057-0.229-0.13 0.048-0.252 0.124-0.357 0.228 0 0-0 0-0 0l-9.708 9.708-9.708-9.708c-0-0-0-0-0-0-0.105-0.104-0.227-0.18-0.357-0.228-0.356-0.133-0.771-0.057-1.057 0.229l-4.586 4.586c-0.286 0.286-0.361 0.702-0.229 1.057 0.049 0.13 0.124 0.252 0.229 0.357 0 0 0 0 0 0l9.708 9.708-9.708 9.708c-0 0-0 0-0 0-0.104 0.105-0.18 0.227-0.229 0.357-0.133 0.355-0.057 0.771 0.229 1.057l4.586 4.586c0.286 0.286 0.702 0.361 1.057 0.229 0.13-0.049 0.252-0.124 0.357-0.229 0-0 0-0 0-0l9.708-9.708 9.708 9.708c0 0 0 0 0 0 0.105 0.105 0.227 0.18 0.357 0.229 0.356 0.133 0.771 0.057 1.057-0.229l4.586-4.586c0.286-0.286 0.362-0.702 0.229-1.057-0.049-0.13-0.124-0.252-0.229-0.357z"></path>
</symbol>
<symbol id="icon-search" viewBox="0 0 33 32">
<path d="M13.352 0h0.004v0.002c3.686 0.001 7.024 1.496 9.439 3.912 2.411 2.412 3.905 5.747 3.907 9.43h0.002v0.020h-0.002c-0.001 1.484-0.245 2.913-0.693 4.245-0.075 0.224-0.154 0.438-0.234 0.643v0.002c-0.386 0.978-0.885 1.902-1.482 2.753l7.818 7.028c0.439 0.418 0.677 0.977 0.708 1.544 0.029 0.561-0.145 1.135-0.529 1.595l-0.003 0.004-0.047 0.054-0.009 0.009-0.039 0.043-0.004 0.006c-0.418 0.439-0.976 0.677-1.544 0.707-0.56 0.030-1.134-0.144-1.595-0.528l-0.004-0.003-0.055-0.047-0.008-0.006-7.945-7.141c-0.235 0.166-0.475 0.323-0.718 0.471-0.329 0.202-0.67 0.392-1.018 0.565-1.789 0.893-3.811 1.395-5.949 1.395v0.002h-0.004v-0.002c-3.686-0.001-7.024-1.496-9.439-3.912-2.412-2.412-3.905-5.747-3.907-9.429h-0.002v-0.013h0.002c0.001-3.686 1.496-7.024 3.912-9.439 2.412-2.411 5.747-3.905 9.43-3.907v-0.002h0.009zM13.357 2.994v0.002h-0.013v-0.002c-2.854 0.002-5.442 1.162-7.315 3.034s-3.034 4.462-3.035 7.32h0.002v0.013h-0.002c0.002 2.854 1.161 5.44 3.034 7.314s4.462 3.034 7.32 3.035v-0.002h0.013v0.002c2.854-0.002 5.441-1.161 7.314-3.034s3.034-4.461 3.034-7.319h-0.002v-0.013h0.002c-0.002-2.854-1.162-5.442-3.034-7.315s-4.461-3.034-7.319-3.035v0z"></path>
</symbol>
</defs>
</svg>
