<?xml version="1.0" encoding="iso-8859-1"?>
<!-- Uploaded to: SVG Repo, www.svgrepo.com, Generator: SVG Repo Mixer Tools -->
<!DOCTYPE svg PUBLIC "-//W3C//DTD SVG 1.1//EN" "http://www.w3.org/Graphics/SVG/1.1/DTD/svg11.dtd">
<svg fill="#f87719" version="1.1" id="Capa_1" xmlns="http://www.w3.org/2000/svg" xmlns:xlink="http://www.w3.org/1999/xlink" 
	  viewBox="0 0 526.32 526.32"
	 xml:space="preserve">
<g>
	<g>
		<path d="M129.539,0v18.36h-48.96V0H50.49v526.32h30.089v-18.36h48.96v18.36h32.641V385.438h201.96V526.32h31.618v-18.36h48.96
			v18.36h31.111V0h-31.111v18.36h-48.96V0h-31.618v140.883H162.18V0H129.539z M129.539,467.161h-48.96v-48.96h48.96V467.161z
			 M129.539,377.399h-48.96v-48.96h48.96V377.399z M129.539,287.641h-48.96v-48.96h48.96V287.641z M129.539,197.881h-48.96v-48.96
			h48.96V197.881z M129.539,108.119h-48.96v-48.96h48.96V108.119z M395.759,59.159h48.96v48.96h-48.96V59.159z M395.759,148.921
			h48.96v48.96h-48.96V148.921z M395.759,238.68h48.96v48.96h-48.96V238.68z M395.759,328.439h48.96v48.96h-48.96V328.439z
			 M395.759,418.201h48.96v48.96h-48.96V418.201z M364.141,191.189v143.942H162.18V191.189H364.141z"/>
	</g>
</g>
</svg>